# xmcd CD database file generated by OrangeCD 5.1
#
# Track frame offsets:
#	150
#	21363
#	45883
#	84076
#	116284
#	136081
#	158748
#	170476
#	193959
#	208166
#	238308
#	263491
#	292248
#	306455
#
# Disc length: 4336 seconds
#
# Revision: 3
# Processed by: cddbd v1.5PL3 Copyright (c) Steve Scherf et al.
# Submitted via: OrangeCD 5.1
#
DISCID=c210ee0e
DTITLE=Various, selected by The Orb - Back To Mine
DYEAR=2003
DGENRE=Ambient
TTITLE0=Aphex Twin - Polynomial-C
TTITLE1=Charles Webster - Be No One
TTITLE2=Juno Reactor - Nitrogen Pt. 1
TTITLE3=B12 - Interim
TTITLE4=Creature - Ow Much!
TTITLE5=The Chi-Lites - Have You Seen Her
TTITLE6=Thomas Fehlmann - I Wanna Be a Fishy
TTITLE7=Julee Cruise - Falling
TTITLE8=The Orb - The Land Of Green Ginger
TTITLE9=Aphex Twin - Blue Calx
TTITLE10=Electric Chairs - Barbie Girl (TF Long Version)
TTITLE11=Joachim Spieth - You Don't Fool Me
TTITLE12=F.F.W.D. - Hempire
TTITLE13=Schneider TM vs. KPT. michi.gan - The Light 3000
EXTD=
EXTT0=
EXTT1=
EXTT2=
EXTT3=
EXTT4=
EXTT5=
EXTT6=
EXTT7=
EXTT8=
EXTT9=
EXTT10=
EXTT11=
EXTT12=
EXTT13=
PLAYORDER=
